<?xml version="1.0" standalone="no"?>
<!DOCTYPE svg PUBLIC "-//W3C//DTD SVG 20010904//EN"
 "http://www.w3.org/TR/2001/REC-SVG-20010904/DTD/svg10.dtd">
<svg version="1.0" xmlns="http://www.w3.org/2000/svg"
 width="500.000000pt" height="145.000000pt" viewBox="0 0 500.000000 145.000000"
 preserveAspectRatio="xMidYMid meet">

<g transform="translate(0.000000,145.000000) scale(0.100000,-0.100000)"
fill="#000000" stroke="none">
<path d="M370 983 c1 -145 21 -192 105 -236 l30 -16 -69 -1 -69 0 7 -52 c14
-109 86 -214 183 -265 146 -78 305 -58 424 54 188 176 138 480 -99 591 -56 26
-62 27 -284 30 l-228 3 0 -108z"/>
<path d="M3690 1070 c-30 -30 -27 -83 6 -109 15 -12 34 -21 44 -21 10 0 29 9
44 21 52 41 23 129 -44 129 -17 0 -39 -9 -50 -20z"/>
<path d="M2970 960 c0 -67 -4 -110 -10 -110 -5 0 -10 4 -10 10 0 5 -19 19 -42
31 -32 16 -54 20 -94 17 -110 -9 -184 -100 -184 -224 0 -135 80 -224 200 -224
54 0 81 10 118 43 l22 20 0 -26 c0 -26 2 -27 60 -27 l60 0 0 300 0 300 -60 0
-60 0 0 -110z m-41 -196 c60 -50 48 -144 -24 -178 -41 -20 -49 -20 -91 0 -71
34 -85 115 -30 170 44 44 99 47 145 8z"/>
<path d="M3160 770 l0 -300 65 0 c64 0 65 0 65 27 l0 26 23 -20 c35 -32 62
-43 111 -43 60 0 94 14 138 57 113 110 77 319 -64 378 -66 27 -139 16 -185
-27 l-23 -21 0 111 0 112 -65 0 -65 0 0 -300z m318 -16 c43 -45 44 -90 2 -137
-17 -19 -44 -37 -61 -41 -38 -7 -91 14 -113 45 -37 54 -5 150 56 167 48 14 79
5 116 -34z"/>
<path d="M4510 960 c0 -67 -4 -110 -10 -110 -5 0 -10 4 -10 9 0 5 -19 19 -43
30 -93 45 -188 14 -245 -80 -32 -51 -33 -58 -30 -136 3 -72 7 -86 33 -125 42
-58 96 -88 163 -88 56 0 83 9 120 43 l22 20 0 -26 c0 -26 2 -27 60 -27 l60 0
0 300 0 300 -60 0 -60 0 0 -110z m-38 -199 c28 -25 33 -36 33 -75 0 -81 -75
-133 -148 -102 -40 16 -67 59 -67 107 0 22 10 41 34 65 46 46 101 48 148 5z"/>
<path d="M1344 900 c-18 -6 -46 -26 -63 -45 -25 -29 -31 -45 -31 -81 0 -25 5
-54 10 -65 13 -24 73 -54 125 -63 71 -12 105 -27 105 -45 0 -47 -75 -57 -116
-16 -21 21 -35 25 -81 25 -55 0 -55 0 -49 -27 18 -77 89 -123 189 -123 77 0
112 14 151 60 20 25 26 42 26 82 0 70 -41 111 -125 127 -90 17 -109 25 -113
45 -8 38 64 50 98 16 16 -16 33 -20 81 -20 58 0 60 1 53 23 -11 37 -44 76 -77
93 -37 20 -140 27 -183 14z"/>
<path d="M1805 895 c-23 -8 -58 -33 -82 -60 -134 -147 -31 -375 169 -375 101
1 160 36 193 113 l15 37 -56 0 c-45 0 -62 -5 -86 -25 -44 -37 -109 -35 -149 4
-56 57 -48 61 132 61 l161 0 -4 64 c-5 84 -37 134 -109 170 -60 29 -121 33
-184 11z m139 -106 c14 -11 26 -29 26 -40 0 -17 -8 -19 -95 -19 -61 0 -95 4
-95 11 0 6 13 24 29 40 37 36 94 40 135 8z"/>
<path d="M2334 896 c-18 -8 -37 -22 -43 -33 -9 -16 -10 -15 -11 10 0 27 -1 27
-65 27 l-65 0 2 -217 3 -218 60 0 60 0 5 143 c5 136 6 145 29 163 33 27 86 25
116 -6 24 -23 25 -29 25 -160 l0 -135 65 0 65 0 0 119 c0 186 -17 245 -83 295
-34 25 -121 32 -163 12z"/>
<path d="M4036 885 c-34 -23 -36 -23 -36 -5 0 18 -7 20 -65 20 l-65 0 2 -217
3 -218 60 0 60 0 5 138 5 139 34 30 c27 25 40 29 72 26 l39 -4 0 58 0 58 -39
0 c-24 0 -51 -9 -75 -25z"/>
<path d="M3680 685 l0 -215 60 0 60 0 0 215 0 215 -60 0 -60 0 0 -215z"/>
</g>
</svg>
